<svg viewBox="-50 -50 360 380" width="420" height="450" xmlns="http://www.w3.org/2000/svg">
  <!-- Sound waves (visible when listening) -->
  <circle class="sound-wave" cx="130" cy="120" r="100" fill="none" stroke="#FF6B35" stroke-width="2"/>
  <circle class="sound-wave" cx="130" cy="120" r="100" fill="none" stroke="#FF6B35" stroke-width="2"/>
  <circle class="sound-wave" cx="130" cy="120" r="100" fill="none" stroke="#FF6B35" stroke-width="2"/>

  <!-- Antenna -->
  <line x1="130" y1="28" x2="130" y2="8" stroke="#B0B8C4" stroke-width="4" stroke-linecap="round"/>
  <circle class="antenna-tip" cx="130" cy="6" r="6" fill="#FF6B35"/>

  <!-- Head -->
  <rect x="40" y="28" width="180" height="160" rx="36" ry="36"
        fill="url(#headGrad)" stroke="#B0B8C4" stroke-width="3"/>

  <!-- Gradients -->
  <defs>
    <linearGradient id="headGrad" x1="0%" y1="0%" x2="100%" y2="100%">
      <stop offset="0%" style="stop-color:#E8EDF2"/>
      <stop offset="100%" style="stop-color:#CDD5DE"/>
    </linearGradient>
    <radialGradient id="eyeGlowL">
      <stop offset="0%" style="stop-color:#4ECDC4; stop-opacity:0.3"/>
      <stop offset="100%" style="stop-color:#4ECDC4; stop-opacity:0"/>
    </radialGradient>
    <radialGradient id="eyeGlowR">
      <stop offset="0%" style="stop-color:#FF6B9D; stop-opacity:0.3"/>
      <stop offset="100%" style="stop-color:#FF6B9D; stop-opacity:0"/>
    </radialGradient>
  </defs>

  <!-- Eye glow -->
  <circle cx="90" cy="100" r="32" fill="url(#eyeGlowL)"/>
  <circle cx="170" cy="100" r="32" fill="url(#eyeGlowR)"/>

  <!-- Eyes whites -->
  <circle class="robot-eye-white" cx="90" cy="100" r="22" fill="white"
          stroke="#B0B8C4" stroke-width="2"/>
  <circle class="robot-eye-white" cx="170" cy="100" r="22" fill="white"
          stroke="#B0B8C4" stroke-width="2"/>

  <!-- Pupils -->
  <circle class="robot-eye-pupil" cx="90" cy="100" r="10" fill="#2D3436"/>
  <circle class="robot-eye-pupil" cx="170" cy="100" r="10" fill="#2D3436"/>

  <!-- Pupil highlights -->
  <circle cx="95" cy="95" r="3.5" fill="white" opacity="0.9"/>
  <circle cx="175" cy="95" r="3.5" fill="white" opacity="0.9"/>

  <!-- Cheek blush -->
  <ellipse cx="65" cy="128" rx="14" ry="8" fill="#FFB8C6" opacity="0.45"/>
  <ellipse cx="195" cy="128" rx="14" ry="8" fill="#FFB8C6" opacity="0.45"/>

  <!-- Mouth (smile) -->
  <ellipse class="robot-mouth" cx="130" cy="148" rx="22" ry="10"
           fill="#FF6B9D" opacity="0.7"/>
  <ellipse cx="130" cy="146" rx="18" ry="5"
           fill="white" opacity="0.25"/>

  <!-- Ears -->
  <rect x="20" y="78" width="16" height="44" rx="8" fill="#B0B8C4" stroke="#9CA8B4" stroke-width="1.5"/>
  <rect x="224" y="78" width="16" height="44" rx="8" fill="#B0B8C4" stroke="#9CA8B4" stroke-width="1.5"/>

  <!-- Neck -->
  <rect x="110" y="188" width="40" height="16" rx="4" fill="#CDD5DE" stroke="#B0B8C4" stroke-width="1.5"/>

  <!-- Body hint -->
  <rect x="70" y="204" width="120" height="56" rx="20" ry="20"
        fill="url(#headGrad)" stroke="#B0B8C4" stroke-width="2.5"/>
  <!-- Body details -->
  <circle cx="110" cy="228" r="5" fill="#4ECDC4" opacity="0.6"/>
  <circle cx="130" cy="228" r="5" fill="#FF6B35" opacity="0.6"/>
  <circle cx="150" cy="228" r="5" fill="#A855F7" opacity="0.6"/>

  <!-- Thinking dots (visible when thinking) -->
  <g class="thinking-dots" transform="translate(130, 270)">
    <circle class="thinking-dot" cx="-16" cy="0" r="5" fill="#A855F7"/>
    <circle class="thinking-dot" cx="0" cy="0" r="5" fill="#A855F7"/>
    <circle class="thinking-dot" cx="16" cy="0" r="5" fill="#A855F7"/>
  </g>

  <!-- Gear icon (visible when thinking) -->
  <g class="gear-icon" transform="translate(210, 40)">
    <circle cx="0" cy="0" r="12" fill="none" stroke="#A855F7" stroke-width="3"/>
    <line x1="0" y1="-16" x2="0" y2="16" stroke="#A855F7" stroke-width="3" stroke-linecap="round"/>
    <line x1="-16" y1="0" x2="16" y2="0" stroke="#A855F7" stroke-width="3" stroke-linecap="round"/>
    <line x1="-11" y1="-11" x2="11" y2="11" stroke="#A855F7" stroke-width="3" stroke-linecap="round"/>
    <line x1="11" y1="-11" x2="-11" y2="11" stroke="#A855F7" stroke-width="3" stroke-linecap="round"/>
  </g>
</svg>
